<svg width="949" height="569" viewBox="0 0 949 569" fill="none" xmlns="http://www.w3.org/2000/svg">
<g clip-path="url(#clip0)">
<path d="M368.454 509.5C363.348 511.295 357.865 511.745 352.535 510.806C347.204 509.867 342.205 507.571 338.02 504.139C327.36 495.192 324.018 480.451 321.298 466.803L313.255 426.433L330.095 438.028C342.205 446.367 354.588 454.972 362.973 467.05C371.358 479.129 375.018 495.616 368.281 508.685" fill="#E6E6E6"/>
<path d="M367.015 558.376C368.719 545.961 370.472 533.387 369.276 520.839C368.214 509.695 364.815 498.81 357.893 489.885C354.219 485.157 349.748 481.106 344.682 477.914C343.361 477.08 342.145 479.174 343.46 480.004C352.226 485.544 359.006 493.725 362.823 503.367C367.039 514.089 367.716 525.778 366.989 537.168C366.55 544.056 365.619 550.899 364.681 557.733C364.607 558.042 364.653 558.368 364.81 558.644C364.967 558.92 365.223 559.127 365.526 559.222C365.836 559.305 366.165 559.263 366.444 559.105C366.723 558.947 366.928 558.685 367.015 558.376V558.376Z" fill="#F2F2F2"/>
<path d="M350.598 536.408C348.408 539.736 345.398 542.445 341.857 544.272C338.317 546.099 334.365 546.984 330.383 546.841C320.15 546.355 311.619 539.213 303.939 532.433L281.224 512.377L296.258 511.658C307.069 511.14 318.159 510.658 328.456 513.992C338.754 517.326 348.25 525.349 350.133 536.008" fill="#E6E6E6"/>
<path d="M371.832 565.513C363.628 550.998 354.113 534.865 337.11 529.709C332.382 528.28 327.425 527.768 322.505 528.201C320.955 528.334 321.342 530.725 322.89 530.591C331.136 529.906 339.367 532.084 346.196 536.757C352.768 541.23 357.885 547.449 362.215 554.044C364.868 558.083 367.244 562.294 369.621 566.499C370.38 567.843 372.6 566.873 371.832 565.513V565.513Z" fill="#F2F2F2"/>
<path d="M591.713 274.724L412.86 422.958C410.61 424.819 407.713 425.711 404.806 425.439C401.898 425.167 399.217 423.752 397.352 421.506L321.957 330.538C320.096 328.287 319.203 325.391 319.476 322.483C319.748 319.576 321.162 316.895 323.408 315.029L502.261 166.795C504.512 164.934 507.409 164.042 510.316 164.314C513.223 164.586 515.904 166.001 517.77 168.247L593.165 259.215C595.026 261.466 595.918 264.362 595.646 267.27C595.374 270.177 593.959 272.858 591.713 274.724Z" fill="#CCCCCC"/>
<path d="M584.546 270.26L409.804 415.087C408.645 416.045 407.153 416.505 405.655 416.365C404.157 416.225 402.776 415.496 401.815 414.339L329.828 327.482C328.869 326.323 328.409 324.831 328.55 323.333C328.69 321.835 329.418 320.454 330.576 319.493L505.317 174.666C506.477 173.708 507.969 173.248 509.467 173.388C510.964 173.528 512.345 174.257 513.306 175.414L585.294 262.271C586.252 263.43 586.712 264.922 586.572 266.42C586.432 267.918 585.703 269.299 584.546 270.26Z" fill="white"/>
<path d="M592.601 300.577L556.661 297.213L582.384 276.968L596.241 293.687C596.782 294.325 597.117 295.111 597.203 295.943C597.289 296.775 597.122 297.613 596.723 298.348C596.462 298.847 596.105 299.29 595.672 299.65C595.247 300 594.757 300.262 594.229 300.421C593.702 300.58 593.149 300.633 592.601 300.577V300.577Z" fill="#CCCCCC"/>
<path d="M520.428 236.202L432.029 309.467C431.489 309.914 430.866 310.251 430.196 310.458C429.526 310.665 428.822 310.738 428.123 310.672C427.425 310.607 426.747 310.405 426.127 310.077C425.507 309.749 424.957 309.303 424.51 308.763C424.062 308.223 423.725 307.6 423.518 306.93C423.312 306.26 423.239 305.556 423.304 304.858C423.37 304.159 423.572 303.481 423.899 302.861C424.227 302.241 424.673 301.691 425.213 301.244L513.612 227.979C514.152 227.531 514.775 227.194 515.445 226.987C516.115 226.781 516.819 226.708 517.518 226.773C518.216 226.839 518.894 227.041 519.514 227.368C520.134 227.696 520.684 228.142 521.131 228.682C521.579 229.222 521.916 229.845 522.122 230.515C522.329 231.185 522.402 231.89 522.337 232.588C522.271 233.286 522.069 233.965 521.742 234.585C521.414 235.205 520.967 235.754 520.428 236.202V236.202Z" fill="#CCCCCC"/>
<path d="M477.164 242.581L417.546 291.993C416.456 292.897 415.051 293.33 413.641 293.198C412.231 293.066 410.931 292.379 410.027 291.289C409.123 290.198 408.69 288.794 408.822 287.383C408.954 285.973 409.64 284.673 410.731 283.77L470.349 234.358C471.439 233.454 472.844 233.021 474.254 233.153C475.664 233.285 476.964 233.972 477.868 235.062C478.772 236.153 479.205 237.557 479.073 238.967C478.941 240.378 478.254 241.678 477.164 242.581Z" fill="#CCCCCC"/>
<path d="M384.787 343.635C394.003 343.635 401.475 336.163 401.475 326.947C401.475 317.73 394.003 310.259 384.787 310.259C375.57 310.259 368.099 317.73 368.099 326.947C368.099 336.163 375.57 343.635 384.787 343.635Z" fill="#6EFFC0"/>
<path d="M517.532 293.496C520.482 293.496 522.873 291.105 522.873 288.156C522.873 285.206 520.482 282.816 517.532 282.816C514.583 282.816 512.192 285.206 512.192 288.156C512.192 291.105 514.583 293.496 517.532 293.496Z" fill="#E6E6E6"/>
<path d="M531.923 281.569C534.872 281.569 537.263 279.178 537.263 276.229C537.263 273.28 534.872 270.889 531.923 270.889C528.974 270.889 526.583 273.28 526.583 276.229C526.583 279.178 528.974 281.569 531.923 281.569Z" fill="#E6E6E6"/>
<path d="M546.313 269.642C549.263 269.642 551.654 267.251 551.654 264.302C551.654 261.353 549.263 258.962 546.313 258.962C543.364 258.962 540.973 261.353 540.973 264.302C540.973 267.251 543.364 269.642 546.313 269.642Z" fill="#E6E6E6"/>
<path d="M461.198 556.214L473.458 556.213L479.29 508.925L461.196 508.926L461.198 556.214Z" fill="#FFB8B8"/>
<path d="M458.071 552.211L482.215 552.21H482.216C484.237 552.21 486.237 552.608 488.104 553.382C489.971 554.155 491.667 555.288 493.096 556.717C494.525 558.146 495.658 559.842 496.431 561.708C497.204 563.575 497.602 565.576 497.602 567.597V568.097L458.072 568.098L458.071 552.211Z" fill="#844C4C"/>
<path d="M417.198 556.214L429.458 556.213L435.29 508.925L417.196 508.926L417.198 556.214Z" fill="#FFB8B8"/>
<path d="M414.071 552.211L438.215 552.21H438.216C440.237 552.21 442.237 552.608 444.104 553.382C445.971 554.155 447.667 555.288 449.096 556.717C450.525 558.146 451.658 559.842 452.431 561.708C453.204 563.575 453.602 565.576 453.602 567.597V568.097L414.072 568.098L414.071 552.211Z" fill="#844C4C"/>
<path d="M429.501 541.745H429.499L419.073 541.742C417.907 541.746 416.785 541.295 415.946 540.485C415.106 539.675 414.616 538.57 414.578 537.404L414.25 528.283C411.614 455.343 408.889 379.919 425.767 346.019L425.9 345.752L481.78 343.729L492.998 446.641C493.477 451.03 493.302 455.467 492.478 459.805L477.648 537.953C477.447 539.013 476.873 539.965 476.029 540.636C475.185 541.308 474.128 541.654 473.051 541.611L461.34 541.231C460.727 541.207 460.125 541.058 459.572 540.792C459.019 540.527 458.525 540.151 458.122 539.688C457.719 539.225 457.416 538.685 457.229 538.1C457.043 537.515 456.978 536.899 457.039 536.288L466.238 464.009C466.551 460.889 466.268 457.738 465.403 454.725L453.962 414.73C453.868 414.4 453.662 414.112 453.381 413.914C453.099 413.717 452.758 413.622 452.415 413.647C452.072 413.671 451.747 413.812 451.496 414.047C451.245 414.282 451.082 414.596 451.034 414.937L433.958 537.864C433.804 538.938 433.27 539.922 432.452 540.634C431.633 541.347 430.586 541.741 429.501 541.745V541.745Z" fill="#EDF2F4"/>
<path d="M436.183 240.842C449.748 240.842 460.745 229.845 460.745 216.281C460.745 202.716 449.748 191.72 436.183 191.72C422.619 191.72 411.622 202.716 411.622 216.281C411.622 229.845 422.619 240.842 436.183 240.842Z" fill="#FFB8B8"/>
<path d="M479.16 351.326H428.337C427.691 351.326 427.053 351.187 426.466 350.918C425.878 350.65 425.356 350.258 424.933 349.769C424.511 349.281 424.198 348.707 424.017 348.087C423.836 347.467 423.791 346.815 423.884 346.176L426.395 328.98L411.651 288.426C410.129 284.239 409.563 279.765 409.996 275.331C410.428 270.898 411.848 266.617 414.15 262.804C416.452 258.99 419.579 255.74 423.301 253.293C427.024 250.845 431.246 249.262 435.66 248.659V248.659C441.948 247.782 448.353 248.941 453.935 251.967C459.517 254.993 463.983 259.727 466.681 265.475L469.919 272.365L483.585 346.006C483.705 346.655 483.681 347.323 483.515 347.962C483.348 348.601 483.043 349.196 482.62 349.704C482.198 350.211 481.669 350.62 481.071 350.901C480.473 351.181 479.821 351.326 479.16 351.326H479.16Z" fill="#6EFFC0"/>
<path d="M371.874 394.462C373.404 394.107 374.837 393.421 376.073 392.451C377.309 391.482 378.317 390.254 379.027 388.853C379.736 387.452 380.13 385.912 380.181 384.343C380.231 382.773 379.937 381.211 379.318 379.768L418.921 290.296L396.266 284.59L364.462 374.332C362.106 375.532 360.271 377.554 359.306 380.016C358.341 382.478 358.313 385.208 359.227 387.689C360.14 390.171 361.932 392.231 364.263 393.479C366.594 394.727 369.302 395.077 371.874 394.462H371.874Z" fill="#FFB8B8"/>
<path d="M413.56 306.297L391.526 295.984C390.899 295.69 390.343 295.265 389.895 294.737C389.448 294.209 389.119 293.591 388.931 292.925C388.744 292.259 388.703 291.56 388.81 290.876C388.917 290.192 389.17 289.539 389.552 288.962L402.942 268.739C404.463 265.542 407.189 263.079 410.523 261.888C413.857 260.697 417.527 260.877 420.729 262.387C423.931 263.897 426.404 266.615 427.606 269.945C428.807 273.275 428.64 276.946 427.14 280.153L420.216 303.316C420.018 303.979 419.679 304.591 419.222 305.112C418.766 305.632 418.202 306.048 417.571 306.331C416.939 306.614 416.254 306.757 415.562 306.751C414.869 306.746 414.187 306.591 413.56 306.297H413.56Z" fill="#6EFFC0"/>
<path d="M537.075 164.224C537.553 165.72 537.698 167.302 537.498 168.86C537.299 170.418 536.76 171.913 535.92 173.24C535.08 174.567 533.96 175.694 532.637 176.541C531.315 177.388 529.823 177.935 528.266 178.143L471.697 257.978L455.195 241.441L515.989 168.166C515.813 165.528 516.611 162.917 518.231 160.827C519.851 158.738 522.182 157.315 524.781 156.829C527.38 156.343 530.067 156.828 532.333 158.191C534.599 159.553 536.286 161.7 537.075 164.224V164.224Z" fill="#FFB8B8"/>
<path d="M484.779 248.607C484.86 249.294 484.791 249.991 484.578 250.65C484.365 251.308 484.012 251.913 483.544 252.423L467.195 270.232C465.209 273.165 462.142 275.191 458.665 275.865C455.188 276.539 451.586 275.808 448.648 273.83C445.71 271.852 443.676 268.791 442.992 265.316C442.308 261.841 443.03 258.236 444.999 255.293L455.512 233.435C455.812 232.812 456.243 232.26 456.775 231.818C457.308 231.375 457.929 231.053 458.598 230.873C459.266 230.693 459.965 230.658 460.648 230.773C461.331 230.887 461.981 231.147 462.554 231.535L482.696 245.179C483.269 245.567 483.752 246.074 484.112 246.665C484.471 247.257 484.699 247.919 484.779 248.607V248.607Z" fill="#6EFFC0"/>
<path d="M468.455 206C468.439 203.777 468.131 201.566 467.536 199.424C463.579 184.802 448.971 176.025 434.311 178.228C431.46 177.41 428.509 176.997 425.543 177V177C417.998 177 410.701 179.698 404.971 184.607C399.241 189.515 395.455 196.311 394.297 203.767L382.455 280H446.455L456.789 213.475C457.172 211.002 457.263 208.493 457.058 206H468.455Z" fill="#844C4C"/>
<path d="M548 568.653H337C336.735 568.653 336.48 568.547 336.293 568.36C336.105 568.172 336 567.918 336 567.653C336 567.388 336.105 567.133 336.293 566.946C336.48 566.758 336.735 566.653 337 566.653H548C548.265 566.653 548.52 566.758 548.707 566.946C548.895 567.133 549 567.388 549 567.653C549 567.918 548.895 568.172 548.707 568.36C548.52 568.547 548.265 568.653 548 568.653Z" fill="#CCCCCC"/>
<path d="M760.57 77.6676C762.034 77.5268 763.51 77.7085 764.896 78.2C766.281 78.6915 767.542 79.4808 768.589 80.5123C769.637 81.5439 770.445 82.7925 770.958 84.1703C771.471 85.5481 771.675 87.0215 771.557 88.4868L804.264 102.882L788.662 112.953L759.995 97.739C757.546 97.377 755.316 96.1294 753.726 94.2326C752.136 92.3359 751.296 89.9217 751.367 87.4476C751.438 84.9736 752.414 82.6115 754.111 80.809C755.807 79.0065 758.105 77.8887 760.57 77.6676V77.6676Z" fill="#A0616A"/>
<path d="M892.502 59.7107C906.067 59.7107 917.063 48.7143 917.063 35.1497C917.063 21.585 906.067 10.5886 892.502 10.5886C878.937 10.5886 867.941 21.585 867.941 35.1497C867.941 48.7143 878.937 59.7107 892.502 59.7107Z" fill="#A0616A"/>
<path d="M848.05 385.364L835.79 385.363L829.958 338.075L848.052 338.076L848.05 385.364Z" fill="#A0616A"/>
<path d="M851.176 397.248L811.646 397.246V396.746C811.646 394.726 812.044 392.725 812.817 390.858C813.59 388.991 814.724 387.295 816.152 385.866C817.581 384.438 819.277 383.304 821.144 382.531C823.011 381.758 825.012 381.36 827.032 381.36H827.033L851.177 381.361L851.176 397.248Z" fill="#844C4C"/>
<path d="M899.05 385.364L886.79 385.363L880.958 338.075L899.052 338.076L899.05 385.364Z" fill="#A0616A"/>
<path d="M902.176 397.248L862.646 397.246V396.746C862.646 394.726 863.044 392.725 863.817 390.858C864.59 388.991 865.724 387.295 867.152 385.866C868.581 384.438 870.277 383.304 872.144 382.531C874.011 381.758 876.012 381.36 878.032 381.36H878.033L902.177 381.361L902.176 397.248Z" fill="#844C4C"/>
<path d="M898.469 375.292C898.285 375.292 898.102 375.28 897.92 375.258L879.974 373.049C878.923 372.921 877.951 372.426 877.229 371.651C876.507 370.876 876.083 369.871 876.03 368.813L870.8 251.05C870.782 250.716 870.654 250.397 870.434 250.145C870.214 249.892 869.916 249.721 869.588 249.657C869.259 249.593 868.919 249.641 868.621 249.793C868.323 249.945 868.084 250.193 867.943 250.496L854.509 295.28L851.742 367.217C851.718 367.837 851.566 368.446 851.296 369.005C851.025 369.563 850.642 370.06 850.171 370.463C849.699 370.867 849.148 371.168 848.555 371.349C847.961 371.529 847.336 371.585 846.719 371.512L831.179 369.683C830.068 369.555 829.044 369.017 828.309 368.174C827.574 367.331 827.18 366.244 827.206 365.126L828.525 297.412L839.054 191.12L839.524 191.138L903.546 193.605L902.969 370.807C902.965 371.998 902.489 373.138 901.646 373.979C900.802 374.82 899.66 375.292 898.469 375.292H898.469Z" fill="#EDF2F4"/>
<path d="M901.12 203.318C901.081 203.318 901.042 203.318 901.003 203.317L836.524 201.628C835.892 201.611 835.27 201.462 834.7 201.189C834.13 200.916 833.623 200.526 833.214 200.045C832.804 199.563 832.501 199.001 832.323 198.394C832.145 197.787 832.097 197.15 832.183 196.523L844.573 105.332C845.346 99.1746 847.41 93.2496 850.629 87.9438C853.848 82.638 858.149 78.0707 863.253 74.54C867.742 71.4496 872.841 69.3556 878.207 68.3989C883.572 67.4422 889.08 67.6448 894.361 68.9932C916.867 74.6963 930.369 98.8633 924.458 122.865L905.49 199.895C905.245 200.869 904.683 201.735 903.892 202.355C903.1 202.975 902.125 203.314 901.12 203.318V203.318Z" fill="#8D99AE"/>
<path d="M816.53 130.904C812.281 130.909 808.123 129.674 804.566 127.35L766.963 102.68C766.413 102.319 765.948 101.841 765.603 101.281C765.257 100.721 765.038 100.092 764.962 99.4381C764.886 98.7843 764.954 98.1217 765.162 97.4971C765.37 96.8725 765.712 96.3011 766.165 95.8232L771.829 89.8428C772.447 89.1872 773.248 88.7329 774.127 88.539C775.007 88.3451 775.925 88.4207 776.761 88.7558L818.762 105.481L857.671 77.6953C859.491 76.3961 861.56 75.4887 863.748 75.0305C865.936 74.5724 868.196 74.5733 870.383 75.0334C872.571 75.4935 874.64 76.4026 876.458 77.7034C878.276 79.0041 879.805 80.668 880.947 82.59C882.089 84.5119 882.819 86.6499 883.092 88.8688C883.366 91.0877 883.175 93.3391 882.533 95.4806C881.891 97.6221 880.812 99.607 879.363 101.31C877.915 103.013 876.128 104.396 874.117 105.373L826.029 128.73C823.068 130.165 819.82 130.908 816.53 130.904V130.904Z" fill="#8D99AE"/>
<path d="M901.012 58.6378C905.203 59.6272 910.258 60.3864 913.252 57.2929C913.783 56.7089 914.257 56.0761 914.668 55.4028L918.583 49.4254C921.583 44.8465 924.635 40.1481 925.904 34.8236C926.633 31.7641 926.747 28.5901 926.24 25.486C925.732 22.382 924.613 19.4097 922.947 16.742C921.281 14.0742 919.101 11.764 916.535 9.94574C913.968 8.12743 911.066 6.83719 907.997 6.14999C902.151 4.84117 896.431 2.58922 890.455 3C884.479 3.41078 877.47 3.27592 872.455 0C872.768 1.46046 874.457 7.91341 874.457 7.91341C874.457 7.91341 866.916 14.8321 865.403 16.5572C867.383 15.6796 869.538 15.2675 871.702 15.3526C873.866 15.4378 875.981 16.0179 877.886 17.0485C879.791 18.079 881.434 19.5325 882.689 21.2973C883.944 23.062 884.778 25.0911 885.126 27.2285C885.555 29.8543 885.303 32.7665 886.863 34.9216C888.347 36.9714 891.008 37.6896 893.245 38.8732C896.469 40.71 898.931 43.6386 900.187 47.1307C901.442 50.6227 901.408 54.4485 900.092 57.9179L901.012 58.6378Z" fill="#844C4C"/>
<path d="M871.523 212.115H667.934C665.374 212.112 662.921 211.094 661.111 209.284C659.301 207.475 658.284 205.021 658.281 202.462V98.912C658.284 96.3528 659.301 93.8992 661.111 92.0895C662.921 90.2799 665.374 89.2619 667.934 89.259H871.523C874.082 89.2619 876.536 90.2799 878.346 92.0895C880.155 93.8992 881.173 96.3528 881.176 98.912V202.462C881.173 205.021 880.155 207.475 878.346 209.284C876.536 211.094 874.082 212.112 871.523 212.115V212.115Z" fill="#CCCCCC"/>
<path d="M869.183 205.094H670.274C668.955 205.093 667.691 204.569 666.759 203.636C665.827 202.704 665.302 201.44 665.301 200.122V101.252C665.302 99.9338 665.827 98.6698 666.759 97.7375C667.691 96.8053 668.955 96.2809 670.274 96.2794H869.183C870.501 96.2809 871.765 96.8053 872.698 97.7375C873.63 98.6698 874.154 99.9338 874.156 101.252V200.122C874.154 201.44 873.63 202.704 872.698 203.636C871.765 204.569 870.501 205.093 869.183 205.094V205.094Z" fill="white"/>
<path d="M857.664 230.057L835.293 207.687L863.973 208.412V227.443C863.981 228.176 863.767 228.894 863.36 229.503C862.953 230.113 862.371 230.585 861.691 230.858C861.236 231.049 860.747 231.148 860.254 231.149C859.771 231.147 859.294 231.05 858.849 230.862C858.405 230.675 858.002 230.401 857.664 230.057V230.057Z" fill="#CCCCCC"/>
<path d="M844.965 146.253H744.34C743.099 146.253 741.908 145.76 741.03 144.882C740.153 144.005 739.66 142.814 739.66 141.573C739.66 140.332 740.153 139.141 741.03 138.264C741.908 137.386 743.099 136.893 744.34 136.893H844.965C846.206 136.893 847.396 137.386 848.274 138.264C849.152 139.141 849.645 140.332 849.645 141.573C849.645 142.814 849.152 144.005 848.274 144.882C847.396 145.76 846.206 146.253 844.965 146.253V146.253Z" fill="#CCCCCC"/>
<path d="M812.203 126.362H744.34C743.725 126.363 743.115 126.243 742.547 126.008C741.978 125.773 741.461 125.429 741.026 124.994C740.591 124.559 740.245 124.043 740.01 123.475C739.774 122.906 739.653 122.297 739.653 121.682C739.653 121.067 739.774 120.458 740.01 119.89C740.245 119.321 740.591 118.805 741.026 118.37C741.461 117.936 741.978 117.591 742.547 117.356C743.115 117.121 743.725 117.001 744.34 117.002H812.203C813.444 117.002 814.635 117.495 815.512 118.373C816.39 119.25 816.883 120.441 816.883 121.682C816.883 122.923 816.39 124.114 815.512 124.992C814.635 125.869 813.444 126.362 812.203 126.362Z" fill="#CCCCCC"/>
<path d="M702.686 146.253C710.763 146.253 717.311 139.705 717.311 131.628C717.311 123.55 710.763 117.002 702.686 117.002C694.608 117.002 688.06 123.55 688.06 131.628C688.06 139.705 694.608 146.253 702.686 146.253Z" fill="#6EFFC0"/>
<path d="M813.955 184.372C816.54 184.372 818.635 182.277 818.635 179.692C818.635 177.107 816.54 175.012 813.955 175.012C811.37 175.012 809.275 177.107 809.275 179.692C809.275 182.277 811.37 184.372 813.955 184.372Z" fill="#E6E6E6"/>
<path d="M830.336 184.372C832.921 184.372 835.016 182.277 835.016 179.692C835.016 177.107 832.921 175.012 830.336 175.012C827.751 175.012 825.656 177.107 825.656 179.692C825.656 182.277 827.751 184.372 830.336 184.372Z" fill="#E6E6E6"/>
<path d="M846.716 184.372C849.301 184.372 851.397 182.277 851.397 179.692C851.397 177.107 849.301 175.012 846.716 175.012C844.132 175.012 842.036 177.107 842.036 179.692C842.036 182.277 844.132 184.372 846.716 184.372Z" fill="#E6E6E6"/>
<path d="M868.371 199.8C868.532 198.339 869.012 196.931 869.777 195.676C870.541 194.42 871.572 193.347 872.796 192.533C874.02 191.719 875.408 191.183 876.861 190.963C878.315 190.743 879.799 190.845 881.209 191.261L901.993 162.191L908.658 179.524L887.899 204.471C887.044 206.794 885.366 208.722 883.184 209.89C881.002 211.058 878.468 211.386 876.06 210.81C873.653 210.234 871.541 208.795 870.124 206.766C868.706 204.737 868.083 202.259 868.371 199.8H868.371Z" fill="#A0616A"/>
<path d="M892.178 198.232C891.851 198.259 891.522 198.251 891.197 198.207C890.544 198.12 889.919 197.89 889.365 197.534C888.811 197.178 888.342 196.705 887.992 196.147L883.6 189.179C883.117 188.418 882.874 187.529 882.904 186.629C882.934 185.728 883.235 184.858 883.768 184.131L910.37 147.577L893.079 103.001C891.535 99.0793 891.593 94.7074 893.241 90.828C894.89 86.9485 897.997 83.8721 901.893 82.2619V82.2619C904.094 81.3387 906.472 80.9148 908.857 81.0206C911.241 81.1265 913.573 81.7594 915.683 82.874C917.794 83.9885 919.632 85.557 921.064 87.4665C922.496 89.3761 923.487 91.5792 923.966 93.9176L934.694 146.291C935.44 149.984 935.22 153.808 934.055 157.392C932.89 160.975 930.819 164.197 928.043 166.745L894.833 197.071C894.101 197.741 893.167 198.149 892.178 198.232V198.232Z" fill="#8D99AE"/>
<path d="M948 399.653H737C736.735 399.653 736.48 399.547 736.293 399.36C736.105 399.172 736 398.918 736 398.653C736 398.388 736.105 398.133 736.293 397.946C736.48 397.758 736.735 397.653 737 397.653H948C948.265 397.653 948.52 397.758 948.707 397.946C948.895 398.133 949 398.388 949 398.653C949 398.918 948.895 399.172 948.707 399.36C948.52 399.547 948.265 399.653 948 399.653Z" fill="#CCCCCC"/>
<path d="M256.618 150.776H53.0281C50.4689 150.773 48.0153 149.755 46.2056 147.946C44.3959 146.136 43.378 143.683 43.3751 141.123V37.5735C43.378 35.0143 44.3959 32.5607 46.2056 30.751C48.0153 28.9413 50.4689 27.9234 53.0281 27.9205H256.618C259.177 27.9234 261.63 28.9414 263.44 30.751C265.25 32.5607 266.268 35.0143 266.271 37.5735V141.123C266.268 143.683 265.25 146.136 263.44 147.946C261.63 149.755 259.177 150.773 256.618 150.776V150.776Z" fill="#CCCCCC"/>
<path d="M254.277 143.756H55.3682C54.0498 143.755 52.7859 143.23 51.8536 142.298C50.9214 141.366 50.397 140.102 50.3955 138.783V39.9137C50.397 38.5953 50.9214 37.3313 51.8536 36.399C52.7859 35.4668 54.0498 34.9424 55.3682 34.9409H254.277C255.596 34.9424 256.86 35.4668 257.792 36.399C258.724 37.3313 259.249 38.5953 259.25 39.9137V138.783C259.249 140.102 258.724 141.366 257.792 142.298C256.86 143.23 255.596 143.755 254.277 143.756Z" fill="white"/>
<path d="M242.758 168.718L220.388 146.348L249.068 147.073V166.105C249.075 166.837 248.862 167.555 248.455 168.165C248.048 168.774 247.466 169.246 246.786 169.519C246.331 169.71 245.842 169.809 245.348 169.81C244.866 169.809 244.388 169.711 243.944 169.524C243.499 169.336 243.096 169.063 242.758 168.718V168.718Z" fill="#CCCCCC"/>
<path d="M230.059 84.9146H129.434C128.193 84.9146 127.003 84.4216 126.125 83.5438C125.247 82.6661 124.754 81.4757 124.754 80.2344C124.754 78.9931 125.247 77.8027 126.125 76.925C127.003 76.0473 128.193 75.5542 129.434 75.5542H230.059C231.3 75.5542 232.491 76.0473 233.368 76.925C234.246 77.8027 234.739 78.9931 234.739 80.2344C234.739 81.4757 234.246 82.6661 233.368 83.5438C232.491 84.4216 231.3 84.9146 230.059 84.9146V84.9146Z" fill="#CCCCCC"/>
<path d="M197.298 65.0238H129.434C128.193 65.0238 127.003 64.5307 126.125 63.653C125.247 62.7753 124.754 61.5848 124.754 60.3436C124.754 59.1023 125.247 57.9118 126.125 57.0341C127.003 56.1564 128.193 55.6633 129.434 55.6633H197.298C198.539 55.6633 199.729 56.1564 200.607 57.0341C201.485 57.9118 201.978 59.1023 201.978 60.3436C201.978 61.5848 201.485 62.7753 200.607 63.653C199.729 64.5307 198.539 65.0238 197.298 65.0238V65.0238Z" fill="#CCCCCC"/>
<path d="M87.7801 84.9147C95.8576 84.9147 102.406 78.3666 102.406 70.289C102.406 62.2115 95.8576 55.6633 87.7801 55.6633C79.7026 55.6633 73.1544 62.2115 73.1544 70.289C73.1544 78.3666 79.7026 84.9147 87.7801 84.9147Z" fill="#6EFFC0"/>
<path d="M199.049 123.033C201.634 123.033 203.73 120.938 203.73 118.353C203.73 115.768 201.634 113.673 199.049 113.673C196.465 113.673 194.369 115.768 194.369 118.353C194.369 120.938 196.465 123.033 199.049 123.033Z" fill="#E6E6E6"/>
<path d="M215.43 123.033C218.015 123.033 220.11 120.938 220.11 118.353C220.11 115.768 218.015 113.673 215.43 113.673C212.845 113.673 210.75 115.768 210.75 118.353C210.75 120.938 212.845 123.033 215.43 123.033Z" fill="#E6E6E6"/>
<path d="M231.811 123.033C234.396 123.033 236.491 120.938 236.491 118.353C236.491 115.768 234.396 113.673 231.811 113.673C229.226 113.673 227.131 115.768 227.131 118.353C227.131 120.938 229.226 123.033 231.811 123.033Z" fill="#E6E6E6"/>
<path d="M248.174 17.9714C246.791 18.4693 245.534 19.2645 244.491 20.3009C243.449 21.3373 242.646 22.5896 242.14 23.9698C241.634 25.35 241.436 26.8244 241.561 28.2891C241.686 29.7539 242.131 31.1734 242.864 32.4476L219.444 59.4377L237.853 61.8765L257.271 35.8723C259.33 34.4988 260.814 32.4177 261.441 30.0234C262.068 27.6292 261.795 25.088 260.674 22.8815C259.552 20.675 257.661 18.9564 255.357 18.0515C253.053 17.1465 250.498 17.118 248.174 17.9714V17.9714Z" fill="#FFB8B8"/>
<path d="M91.7982 28.7769C92.2977 30.1595 92.488 31.6348 92.3557 33.099C92.2234 34.5631 91.7717 35.9804 91.0324 37.251C90.2931 38.5217 89.2841 39.6148 88.0767 40.4534C86.8692 41.2919 85.4926 41.8555 84.0437 42.1045L78.2156 77.3609L64.5881 64.7464L72.2118 33.2002C71.9549 30.7385 72.6099 28.2681 74.0527 26.2571C75.4956 24.246 77.626 22.8342 80.0403 22.2889C82.4545 21.7437 84.9849 22.103 87.152 23.2988C89.319 24.4945 90.9722 26.4437 91.7982 28.7769V28.7769Z" fill="#FFB8B8"/>
<path d="M128.399 385.364L140.659 385.363L146.491 338.075L128.397 338.076L128.399 385.364Z" fill="#FFB8B8"/>
<path d="M125.272 381.361L149.415 381.36H149.416C151.437 381.36 153.438 381.758 155.305 382.531C157.171 383.304 158.868 384.438 160.296 385.866C161.725 387.295 162.858 388.991 163.632 390.858C164.405 392.725 164.803 394.726 164.803 396.746V397.246L125.272 397.248L125.272 381.361Z" fill="#844C4C"/>
<path d="M65.399 385.364L77.659 385.363L83.491 338.075L65.397 338.076L65.399 385.364Z" fill="#FFB8B8"/>
<path d="M62.2716 381.361L86.4154 381.36H86.4164C88.437 381.36 90.4378 381.758 92.3046 382.531C94.1713 383.304 95.8676 384.438 97.2963 385.866C98.7251 387.295 99.8585 388.991 100.632 390.858C101.405 392.725 101.803 394.726 101.803 396.746V397.246L62.2724 397.248L62.2716 381.361Z" fill="#844C4C"/>
<path d="M125.84 62.5082C139.404 62.5082 150.401 51.5118 150.401 37.9471C150.401 24.3825 139.404 13.3861 125.84 13.3861C112.275 13.3861 101.279 24.3825 101.279 37.9471C101.279 51.5118 112.275 62.5082 125.84 62.5082Z" fill="#FFB8B8"/>
<path d="M122.896 369.655L120.865 240.248C120.86 239.882 120.721 239.531 120.475 239.26C120.229 238.99 119.892 238.818 119.528 238.779C119.165 238.739 118.799 238.833 118.5 239.044C118.201 239.255 117.99 239.568 117.906 239.924L84.6146 366.5C84.3641 367.513 83.7735 368.409 82.9414 369.039C82.1094 369.669 81.0865 369.993 80.0436 369.959L61.7536 369.177C61.1318 369.15 60.5223 368.995 59.9637 368.721C59.405 368.446 58.9093 368.059 58.5078 367.584C58.1063 367.108 57.8079 366.554 57.6312 365.958C57.4546 365.361 57.4037 364.734 57.4816 364.116L85.7304 201.458L85.7883 200.999L164.47 204.722L164.984 204.745L148.111 369.925C148.023 371.056 147.512 372.112 146.681 372.884C145.849 373.656 144.758 374.087 143.624 374.091H127.395C126.214 374.086 125.082 373.619 124.241 372.79C123.4 371.961 122.917 370.835 122.896 369.655V369.655Z" fill="#EDF2F4"/>
<path d="M185.04 215.684L70.8627 206.314C70.1735 206.257 69.5066 206.043 68.9138 205.687C68.321 205.331 67.8183 204.843 67.4445 204.261C67.0708 203.679 66.8363 203.019 66.759 202.332C66.6818 201.645 66.7639 200.949 66.9991 200.299L84.9798 150.587L86.0145 91.5842C86.052 89.4424 86.5145 87.3293 87.375 85.3675C88.2356 83.4058 89.4771 81.6344 91.0275 80.1562C92.5779 78.678 94.4065 77.5223 96.407 76.7562C98.4076 75.9902 100.54 75.629 102.682 75.6936L110.275 68.8108H138.094L140.516 71.9866L159.874 74.9612C163.322 75.5054 166.503 77.144 168.948 79.6348C171.394 82.1257 172.973 85.3369 173.454 88.7942L189.868 210.599C189.954 211.234 189.902 211.881 189.718 212.495C189.533 213.109 189.219 213.676 188.798 214.159C188.376 214.642 187.856 215.029 187.272 215.295C186.689 215.561 186.055 215.699 185.414 215.699C185.29 215.699 185.165 215.695 185.04 215.684Z" fill="#8D99AE"/>
<path d="M162.794 80.6809L211.478 66.4172L233.51 37.4093C234.117 36.6104 234.973 36.037 235.943 35.7805C236.913 35.5239 237.94 35.5989 238.863 35.9933L252.619 41.8732C253.206 42.1239 253.732 42.4964 254.164 42.966C254.595 43.4356 254.922 43.9915 255.123 44.597C255.323 45.2026 255.392 45.8438 255.326 46.4781C255.26 47.1125 255.059 47.7255 254.738 48.2765L238.273 76.5324C235.592 81.1545 231.51 84.8045 226.619 86.9553L169.358 112.268L162.794 80.6809Z" fill="#8D99AE"/>
<path d="M69.3929 102.018C66.4836 99.9219 64.1635 97.1115 62.6564 93.8579C61.1494 90.6043 60.5063 87.0172 60.7892 83.4426L62.9256 55.135C63.0137 54.0044 63.5244 52.9484 64.356 52.1773C65.1876 51.4062 66.2791 50.9765 67.4132 50.9739H67.453L83.5848 51.1174C84.2457 51.1235 84.8971 51.275 85.4928 51.5612C86.0885 51.8474 86.6139 52.2612 87.0316 52.7734C87.4493 53.2855 87.7491 53.8834 87.9097 54.5244C88.0703 55.1655 88.0878 55.8341 87.9608 56.4827L84.9677 71.7542L106.328 80.7795L88.3407 115.773L69.3929 102.018Z" fill="#8D99AE"/>
<path d="M140.128 8.4961C140.128 8.4961 114.443 -5.33411 100.443 10.9885C86.4428 27.3111 105.777 52.8361 105.777 52.8361L133.325 56.3105C133.325 56.3105 134.325 37.584 140.884 37.9476C147.443 38.3111 167.813 14.6811 140.128 8.4961Z" fill="#844C4C"/>
<path d="M212 398.653H1C0.734784 398.653 0.480429 398.547 0.292892 398.36C0.105356 398.172 0 397.918 0 397.653C0 397.388 0.105356 397.133 0.292892 396.946C0.480429 396.758 0.734784 396.653 1 396.653H212C212.265 396.653 212.52 396.758 212.707 396.946C212.895 397.133 213 397.388 213 397.653C213 397.918 212.895 398.172 212.707 398.36C212.52 398.547 212.265 398.653 212 398.653Z" fill="#CCCCCC"/>
</g>
<defs>
<clipPath id="clip0">
<rect width="949" height="568.653" fill="white"/>
</clipPath>
</defs>
</svg>
